<?xml version="1.0" standalone="no"?>
<!DOCTYPE svg PUBLIC "-//W3C//DTD SVG 20010904//EN"
 "http://www.w3.org/TR/2001/REC-SVG-20010904/DTD/svg10.dtd">
<svg version="1.0" xmlns="http://www.w3.org/2000/svg"
 width="409.000000pt" height="409.000000pt" viewBox="0 0 409.000000 409.000000"
 preserveAspectRatio="xMidYMid meet">
<metadata>
Created by potrace 1.14, written by Peter Selinger 2001-2017
</metadata>
<g transform="translate(0.000000,409.000000) scale(0.100000,-0.100000)"
fill="#000000" stroke="none">
<path d="M2025 3969 c-505 -69 -896 -463 -964 -972 -7 -48 -11 -324 -11 -710
0 -700 5 -637 -65 -792 -185 -404 -206 -543 -106 -691 31 -46 97 -84 199 -116
l73 -23 39 -70 c137 -248 368 -439 634 -524 129 -41 210 -54 351 -54 315 0
582 115 804 346 163 169 270 393 301 629 8 57 10 393 8 1058 l-4 975 -26 100
c-65 246 -187 439 -374 594 -194 161 -418 246 -669 256 -66 2 -151 0 -190 -6z"/>
</g>
</svg>
